HIERARCHY
ROOT Hips
{
	OFFSET -14.64140 90.27770 -84.91600
	CHANNELS 6 Xposition Yposition Zposition Zrotation Xrotation Yrotation
	JOINT Spine
	{
		OFFSET 0.00000 13.20850 -1.60436
		CHANNELS 3 Zrotation Xrotation Yrotation
		JOINT Spine1
		{
			OFFSET 0.00000 8.61716 0.00000
			CHANNELS 3 Zrotation Xrotation Yrotation
			JOINT Spine2
			{
				OFFSET 0.00000 8.61717 0.00000
				CHANNELS 3 Zrotation Xrotation Yrotation
				JOINT Spine3
				{
					OFFSET 0.00000 8.61717 0.00000
					CHANNELS 3 Zrotation Xrotation Yrotation
					JOINT Neck
					{
						OFFSET 0.00000 11.07920 1.10792
						CHANNELS 3 Zrotation Xrotation Yrotation
						JOINT Neck1
						{
							OFFSET 0.00000 7.08032 0.00000
							CHANNELS 3 Zrotation Xrotation Yrotation
							JOINT Head
							{
								OFFSET 0.00000 7.08031 0.00000
								CHANNELS 3 Zrotation Xrotation Yrotation
								End site
								{
									OFFSET 0.00000 0.00000 0.00000
								}
							}
						}
					}
					JOINT RightShoulder
					{
						OFFSET -0.01000 7.91373 5.19711
						CHANNELS 3 Zrotation Xrotation Yrotation
						JOINT RightArm
						{
							OFFSET -18.41580 0.00000 0.00000
							CHANNELS 3 Zrotation Xrotation Yrotation
							JOINT RightForeArm
							{
								OFFSET -29.11090 0.00000 0.00000
								CHANNELS 3 Zrotation Xrotation Yrotation
								JOINT RightHand
								{
									OFFSET -24.65040 0.00000 0.00000
									CHANNELS 3 Zrotation Xrotation Yrotation
									JOINT RightHandThumb1
									{
										OFFSET -5.35114 -0.85590 3.97906
										CHANNELS 3 Zrotation Xrotation Yrotation
										JOINT RightHandThumb2
										{
											OFFSET -4.52789 0.00000 0.00000
											CHANNELS 3 Zrotation Xrotation Yrotation
											JOINT RightHandThumb3
											{
												OFFSET -2.46976 0.00000 0.00000
												CHANNELS 3 Zrotation Xrotation Yrotation
												End site
												{
													OFFSET 0.00000 0.00000 0.00000
												}
											}
										}
									}
									JOINT RightHandIndex1
									{
										OFFSET -14.26970 0.00000 2.88139
										CHANNELS 3 Zrotation Xrotation Yrotation
										JOINT RightHandIndex2
										{
											OFFSET -5.48836 0.00000 0.00000
											CHANNELS 3 Zrotation Xrotation Yrotation
											JOINT RightHandIndex3
											{
												OFFSET -3.01859 0.00000 0.00000
												CHANNELS 3 Zrotation Xrotation Yrotation
												End site
												{
													OFFSET 0.00000 0.00000 0.00000
												}
											}
										}
									}
									JOINT RightHandMiddle1
									{
										OFFSET -14.26970 0.00000 -0.09147
										CHANNELS 3 Zrotation Xrotation Yrotation
										JOINT RightHandMiddle2
										{
											OFFSET -6.17441 0.00000 0.00000
											CHANNELS 3 Zrotation Xrotation Yrotation
											JOINT RightHandMiddle3
											{
												OFFSET -3.56743 0.00000 0.00000
												CHANNELS 3 Zrotation Xrotation Yrotation
												End site
												{
													OFFSET 0.00000 0.00000 0.00000
												}
											}
										}
									}
									JOINT RightHandRing1
									{
										OFFSET -12.69180 0.00000 -3.06433
										CHANNELS 3 Zrotation Xrotation Yrotation
										JOINT RightHandRing2
										{
											OFFSET -5.62556 0.00000 0.00000
											CHANNELS 3 Zrotation Xrotation Yrotation
											JOINT RightHandRing3
											{
												OFFSET -3.56744 0.00000 0.00000
												CHANNELS 3 Zrotation Xrotation Yrotation
												End site
												{
													OFFSET 0.00000 0.00000 0.00000
												}
											}
										}
									}
									JOINT RightHandPinky1
									{
										OFFSET -11.11390 0.00000 -6.03719
										CHANNELS 3 Zrotation Xrotation Yrotation
										JOINT RightHandPinky2
										{
											OFFSET -4.52789 0.00000 0.00000
											CHANNELS 3 Zrotation Xrotation Yrotation
											JOINT RightHandPinky3
											{
												OFFSET -2.46976 0.00000 0.00000
												CHANNELS 3 Zrotation Xrotation Yrotation
												End site
												{
													OFFSET 0.00000 0.00000 0.00000
												}
											}
										}
									}
								}
							}
						}
					}
					JOINT LeftShoulder
					{
						OFFSET 0.01000 7.91373 5.19711
						CHANNELS 3 Zrotation Xrotation Yrotation
						JOINT LeftArm
						{
							OFFSET 18.41580 0.00000 0.00000
							CHANNELS 3 Zrotation Xrotation Yrotation
							JOINT LeftForeArm
							{
								OFFSET 29.11090 0.00000 0.00000
								CHANNELS 3 Zrotation Xrotation Yrotation
								JOINT LeftHand
								{
									OFFSET 24.65040 0.00000 0.00000
									CHANNELS 3 Zrotation Xrotation Yrotation
									JOINT LeftHandThumb1
									{
										OFFSET 5.35114 -0.85590 3.97906
										CHANNELS 3 Zrotation Xrotation Yrotation
										JOINT LeftHandThumb2
										{
											OFFSET 4.52789 0.00000 0.00000
											CHANNELS 3 Zrotation Xrotation Yrotation
											JOINT LeftHandThumb3
											{
												OFFSET 2.46977 0.00000 0.00000
												CHANNELS 3 Zrotation Xrotation Yrotation
												End site
												{
													OFFSET 0.00000 0.00000 0.00000
												}
											}
										}
									}
									JOINT LeftHandIndex1
									{
										OFFSET 14.26970 0.00000 2.88139
										CHANNELS 3 Zrotation Xrotation Yrotation
										JOINT LeftHandIndex2
										{
											OFFSET 5.48836 0.00000 0.00000
											CHANNELS 3 Zrotation Xrotation Yrotation
											JOINT LeftHandIndex3
											{
												OFFSET 3.01859 0.00000 0.00000
												CHANNELS 3 Zrotation Xrotation Yrotation
												End site
												{
													OFFSET 0.00000 0.00000 0.00000
												}
											}
										}
									}
									JOINT LeftHandMiddle1
									{
										OFFSET 14.26970 0.00000 -0.09147
										CHANNELS 3 Zrotation Xrotation Yrotation
										JOINT LeftHandMiddle2
										{
											OFFSET 6.17440 0.00000 0.00000
											CHANNELS 3 Zrotation Xrotation Yrotation
											JOINT LeftHandMiddle3
											{
												OFFSET 3.56744 0.00000 0.00000
												CHANNELS 3 Zrotation Xrotation Yrotation
												End site
												{
													OFFSET 0.00000 0.00000 0.00000
												}
											}
										}
									}
									JOINT LeftHandRing1
									{
										OFFSET 12.69180 0.00000 -3.06433
										CHANNELS 3 Zrotation Xrotation Yrotation
										JOINT LeftHandRing2
										{
											OFFSET 5.62556 0.00000 0.00000
											CHANNELS 3 Zrotation Xrotation Yrotation
											JOINT LeftHandRing3
											{
												OFFSET 3.56744 0.00000 0.00000
												CHANNELS 3 Zrotation Xrotation Yrotation
												End site
												{
													OFFSET 0.00000 0.00000 0.00000
												}
											}
										}
									}
									JOINT LeftHandPinky1
									{
										OFFSET 11.11390 0.00000 -6.03719
										CHANNELS 3 Zrotation Xrotation Yrotation
										JOINT LeftHandPinky2
										{
											OFFSET 4.52789 0.00000 0.00000
											CHANNELS 3 Zrotation Xrotation Yrotation
											JOINT LeftHandPinky3
											{
												OFFSET 2.46976 0.00000 0.00000
												CHANNELS 3 Zrotation Xrotation Yrotation
												End site
												{
													OFFSET 0.00000 0.00000 0.00000
												}
											}
										}
									}
								}
							}
						}
					}
					JOINT pCube4
					{
						OFFSET 0.00000 10.91090 1.10792
						CHANNELS 3 Zrotation Xrotation Yrotation
						End site
						{
							OFFSET 0.00000 0.00000 0.00000
						}
					}
				}
			}
		}
	}
	JOINT RightUpLeg
	{
		OFFSET -9.98441 0.00000 0.00000
		CHANNELS 3 Zrotation Xrotation Yrotation
		JOINT RightLeg
		{
			OFFSET 0.00000 -42.11790 0.00000
			CHANNELS 3 Zrotation Xrotation Yrotation
			JOINT RightFoot
			{
				OFFSET 0.00000 -45.00020 -0.00001
				CHANNELS 3 Zrotation Xrotation Yrotation
				JOINT RightForeFoot
				{
					OFFSET 0.00000 -3.74820 0.00000
					CHANNELS 3 Zrotation Xrotation Yrotation
					JOINT RightToeBase
					{
						OFFSET 0.00000 0.06325 14.43120
						CHANNELS 3 Zrotation Xrotation Yrotation
						End site
						{
							OFFSET 0.00000 0.00000 0.00000
						}
					}
				}
			}
		}
	}
	JOINT LeftUpLeg
	{
		OFFSET 9.98441 0.00000 0.00000
		CHANNELS 3 Zrotation Xrotation Yrotation
		JOINT LeftLeg
		{
			OFFSET 0.00000 -42.11800 0.00000
			CHANNELS 3 Zrotation Xrotation Yrotation
			JOINT LeftFoot
			{
				OFFSET 0.00000 -45.00070 0.00000
				CHANNELS 3 Zrotation Xrotation Yrotation
				JOINT LeftForeFoot
				{
					OFFSET 0.00000 -3.74824 0.00000
					CHANNELS 3 Zrotation Xrotation Yrotation
					JOINT LeftToeBase
					{
						OFFSET 0.00000 0.06325 14.43110
						CHANNELS 3 Zrotation Xrotation Yrotation
						End site
						{
							OFFSET 0.00000 0.00000 0.00000
						}
					}
				}
			}
		}
	}
}
MOTION
Frames: 4
Frame Time: 0.050000
0.014462560382341958 0.030598344248493326 -0.030303492120783444 0.024215701604648948 -0.00120142431655057 -0.013830385971706756 1.7172361753793801 1.7599008505851803 -1.7017071703564597 -0.6562908716704957 3.633003272631704 0.3684648918080777 -0.7672581794957821 -1.398571360864087 0.9131496541810545 -0.7192561092677139 -0.5260378852534591 -0.3521439086963682 0.12408710720823099 12.013169714927177 -0.95707566593957 0.4287888994799004 -0.48435851393698426 -2.5341649924512044 0.7718981904959175 -16.163292242874313 -0.22516505653144536 -6.95986634801497 2.6945545441927625 -16.587311273019797 77.11883633262656 1.1655206945064753 8.987890894021845 -19.185076584893867 6.974169450936379 79.14735698621631 8.084644187023816 0.4754302940531696 3.822911827708064 4.561805789622842 -0.17522010061761828 -1.5463132934749781 -0.014347072415314625 0.046670294149768275 -56.20818753841124 0.04755733655890154 -0.03335379977157695 -56.2415481404086 -38.81738670933195 0.028833534477276886 0.04061277073265707 0.004874661133625407 0.03113590348014877 0.04168870523983035 0.016382927105653464 0.040468762803427 -0.02932769788410844 -36.70009824901004 -0.04857870015528899 -0.027044063131980666 -0.020678473757225074 -0.039386954176237866 0.03133377001423902 -0.03373834773437265 -0.009027530465216099 -0.01044444673281899 -19.796451186671128 -0.036657933547688974 -0.0015316435165571227 0.01069056041423829 0.017468675224716224 0.012358770541396847 0.029699481835861 -0.006575661954594847 0.013862544217278422 24.08169334308223 0.008954488350608534 0.007360800570744084 28.861766822378158 0.03538999941081108 0.02484552830865551 28.851176015744173 0.020039734311171505 -0.04382230526207214 6.607155731481073 1.7430392461372397 14.425240402042842 -75.9368879812667 19.167174748890424 -9.362037193697073 15.091312922864743 4.055323050888444 -57.855459512852704 -15.93037345507917 6.744086713694061 -2.9976795905704643 -0.4739844161140329 0.08380584390311137 -8.132177415578855 0.0318419532843862 -0.020111488394038528 44.59318554046765 -0.02189933463526623 0.007760571578813317 44.54377878335283 12.503476842794592 0.01678253197726843 -0.040347501130900874 0.01899472935363076 -0.04400868862051562 -0.04968919439244001 -0.04054586109791085 0.019647283723260744 -0.023124688443408616 11.144220449253858 -0.04816321062929181 0.01270952486530197 -0.03361284267646905 -0.03852417853346076 -0.006992953130683869 -0.00595708266258485 -0.04428811354166145 0.03450822807964292 4.793165170909667 0.04026866509969709 0.003851549041815911 -0.02504230264855482 -0.008078923474104533 0.021559431392067147 -0.012124990687992662 -0.024312333758417782 -0.01893093945982015 -5.6374284171566575 0.026272977344483004 0.0356093075966011 -6.744921972693182 -0.0015878580781897322 -0.04729029980667771 -6.734921983710155 -0.037791089530563864 0.0008514463704801811 -0.008166073377314783 -0.014883663085311893 -0.029589617448024522 8.0490329804528 3.4788385110988944 -19.220377014544592 -0.02677693863747018 10.378237027470316 0.047796179801230965 -5.609416784633666 -15.655459964917222 3.173668777519063 0.035146613855164384 0.017734524590953343 0.007231581827890045 -0.0014222630356900872 4.695211132361015 -0.03692653384808919 12.481153410030451 -8.237200010564258 6.848366558759511 -0.04448229591390133 46.4196569896135 -0.03185809319565499 -4.357241993612989 -14.716935358768206 -3.824673976124097 -0.01747751849354013 -0.018590252231022193 -0.04331122363444971 0.037373307445223526 -10.74684146827311 -0.020370971640071116 
-0.025873027245268257 -0.01397483913782108 0.013620851556166597 -0.015652529363393248 0.023490052551378173 -0.020278178440439703 1.414836811547243 1.6546366942769062 -1.6377635589781128 -0.6500261240037905 3.7027044606734636 0.37020778634243007 -0.8269025725713757 -1.4206390022985658 0.9579060757876608 -0.7053461039415212 -0.6490678588054417 -0.30675148212928977 0.10971102250886 12.141682558500262 -0.9392085273349707 0.4322528183234614 -0.5153822708281766 -2.5487506066772982 0.8234488109457507 -16.163610008469323 -0.25153076914999023 -6.450314577970715 2.5723949786348554 -16.47898985439925 77.10196599168772 0.631829357385753 8.680619427923624 -19.25508470739666 7.979384877128635 75.27238985338933 9.024555922354224 0.5157455494756846 4.413540613932998 4.521514836532144 -0.16904311807827915 -1.6219342409227937 -0.03457902069955615 0.02035479739267612 -56.213698758397754 -0.025049745260282565 -0.04537894242662297 -56.21371908023281 -38.750545144023505 -0.04215918065394713 0.0030073474365031713 -0.009766708332306442 0.022162217589827015 -0.0005586168675437629 0.020513331362598836 0.032420411895986295 -0.02337270807026737 -36.664735967006834 -0.04770817705022931 0.011057598705292394 0.04460687251066808 0.006290192482188294 0.02006115550187549 -0.020569830828897316 0.024393458835128567 -0.017010649026743017 -19.760008730584097 -0.04920315004135645 0.00634879355113321 -0.04802747257998902 -0.044316355020572254 0.03853413995780758 0.02896438834877232 -0.023890938644221357 -0.03746681455599587 24.01050360136593 -0.0022549288511662666 -0.038886081036457826 28.901360741550143 0.016311235377001285 -0.012738735006110582 28.899878980328932 -0.008346459198322673 -0.016664115464017897 6.285355085477539 1.6970681362152777 14.510665561926984 -76.60375061925711 17.541505961396716 -9.073681956088656 15.478456615048877 6.631644887888549 -55.45987865809798 -17.015438037013233 8.791165571970922 -4.246719845913082 -0.5148736902470836 0.06904796442332899 -8.167662127114069 0.04198263415792392 -0.03114176019501706 44.55525889405594 -0.03540531226400815 -0.024943257654247784 44.57877418572998 12.466599297149711 0.020580287086933206 0.03136753975828039 -0.034756159036768534 -0.016889101320634467 -0.03577310773901048 0.034884063142894765 0.04071358113130856 0.026374338767399454 11.093866622983166 7.788957178199614e-05 0.007202025651624937 0.04350069977358752 -0.028394935355579028 0.02625938533355328 -0.004939123049983104 0.012927262494534845 -0.015181721460844769 4.763852083017165 -0.035651862929027785 -0.01624159221231105 -0.029635836078063662 0.012999793055468037 0.006594751543625461 0.007404245599786274 0.03459031738003216 0.0008990990599808838 -5.605444137227123 -0.026114649009328583 0.048380192032395346 -6.690061381833891 0.04230866955596205 -0.019387942070758533 -6.684042108219577 0.049205649090635704 -0.024758660726393433 0.02334181146711771 -0.03869332337439317 0.029606825191581854 7.997911974111977 3.457942096007503 -19.20973112963139 -0.0015419155247654124 10.412496496877894 0.024876881163574092 -5.608676154363962 -15.69402670864253 3.1965496747856363 0.03478164130420964 -0.03176185004614146 0.023183554688207115 -0.02977876843303296 4.729084180313014 -0.010670884879644944 12.4463585521309 -8.266012622982034 6.860661294133154 -0.020108358040640317 46.40197438928062 -0.04786208219792533 -4.326443624532282 -14.74266088527618 -3.836027462503611 -0.03014898025693663 0.02025027932921712 -0.047687309658643054 -0.020954266061154234 -10.73047290867782 0.011078664127298759 
-0.024164968689771724 -0.036975638562398674 -0.048443474491317216 0.044316126718966425 -0.0242101795104805 0.004973158755223109 0.8814932450530983 1.592915970749124 -1.5932408080493414 -0.5667238824882458 3.7668301379460383 0.3132437820855684 -0.821453637441679 -1.4750395737191304 0.984362055725699 -0.7577763060680707 -0.6388308320570892 -0.37956814764017943 0.08383248006196209 12.219750441190362 -0.9232980569661952 0.48733641546486084 -0.5202048715050438 -2.7305939400632337 0.8082128412435681 -16.064073061745844 -0.25170133123331007 -5.526377460369 2.2611975210495303 -16.161882816310335 76.73745277589987 1.5885386280343092 8.55425689263678 -19.260608970757648 8.575514595092143 73.70694722765961 10.140983688946335 0.5030041515672827 4.758684515279178 4.552455234466058 -0.08032207521252793 -1.5918711163987969 0.024982708004273397 -0.0008037804958697404 -56.20726993734757 0.0020336683445484967 -0.04574926083155503 -56.190448723061095 -38.77536927523854 -0.041038741129120815 0.043968220733297016 -0.038042870216261244 -0.041971940783706155 -0.0037913475552914947 0.015633584963736444 0.007305697922092321 0.005655949101264156 -36.69409539889056 -0.01841992472152154 -0.014703177215208005 -0.03418964704710922 1.570200851829718e-06 -0.0055475771825830794 0.014886447593987065 -0.007058247330502883 0.01944283760172832 -19.716162252767212 0.034706499626242775 -0.01111683292004612 -0.04447789418674696 0.014471248984837204 -0.033128185600225186 0.03916410100390412 0.00012862929667197865 -0.03795584290684843 24.049891881073624 -0.045963421416459975 0.0017171225458404698 28.835071553539596 -0.014358835902461098 0.0117367138396081 28.824158838948666 -0.00426932287722038 -0.030173971812802628 5.668390777209921 1.5646686917482822 14.478898488636057 -76.91024781957134 16.863541942741012 -9.007922069025964 15.917216974329202 7.696266619948883 -55.91476196072897 -17.921293492628106 10.496448336203537 -5.50325087952012 -0.4266529007251446 0.027885221815446955 -8.096478440255575 0.03265612726033716 0.017539882083873307 44.61544598887594 -0.017350490047321886 -0.029315338848730256 44.57437825660937 12.438976728765622 -0.0004613016248981551 -0.04095541833514683 -0.011768224215658735 -0.007925476683362319 0.0032473386712509743 -0.02628626650866506 0.010462242671254295 0.01079734006797763 11.114460956904598 0.004802588039978202 -0.022427409722034688 -0.011651390576065212 -0.025097750808154146 0.015574942066336498 -0.011974038176871277 0.017048102455266227 -0.012950335962448822 4.8113983591307905 0.017775082634875754 0.00567630035058837 0.04902080411570455 0.022606799470605572 0.03515647859186847 -0.03951547695661847 -0.0369838103246213 0.026287258058525456 -5.605339950938848 -0.02159013753958125 0.03671681482195377 -6.727749488184885 0.0025715752081064873 -0.026775662183131394 -6.7606713658621205 -0.03227940824914065 0.01915028077650692 -0.033354563030598215 0.034442740564859645 -0.003120780218669059 8.02479773001134 3.535155469432175 -19.172200323964887 0.03775749397795288 10.376913349795965 -0.03400718079592743 -5.602263783697485 -15.649583764632604 3.223944675554073 -0.022249610266173687 0.009648382372762438 0.0019488750478997689 -0.02939424457883144 4.703402521580417 0.021072869762832198 12.469540283565 -8.215847066224995 6.840841719143544 -0.016534632294092265 46.41490603404847 -0.023854385123726222 -4.288730356273313 -14.719307720408391 -3.795138177147077 -0.031657881241560375 -0.01688251250422206 0.002065611636967005 0.0051254135908975415 -10.717833843125108 -0.04518887455729289 
-0.029660632621651573 0.0038723328423840957 -0.004454483440799923 -0.033801033186946564 -0.04466367656609907 0.045710029797646046 0.14334586599181662 1.4213376661180643 -1.4520542428955343 -0.518747121600475 3.773327158463928 0.3011894935499073 -0.8234842204844864 -1.5499357386326225 1.0013864089772895 -0.7656408429277034 -0.6188976166121778 -0.3502729275827553 0.09843614652239276 12.464386104856157 -0.9219989118124159 0.49143908803046005 -0.5458538994343078 -2.968230971090465 0.8648886569771502 -15.945188090262109 -0.23900865198013393 -4.351677227708217 1.898039508262718 -15.811006991817987 75.65069730172121 3.501928165794595 8.49715027706522 -18.812693487769486 8.621591264059482 75.11153358792626 11.230825312027857 0.4307083991194145 4.750137576249559 4.490934233431622 -0.12413763058349328 -1.5458547691842954 0.03168788554131159 0.01790948079121062 -56.27330805907332 0.011827309614904219 -0.03763742188080082 -56.24990333609553 -38.79350422750077 -0.04972065884145297 -0.032010241057786354 0.007038326358301486 -0.0201801310708128 0.0033700803872419405 0.01042593933873747 0.012241793719489151 -0.002453748484345456 -36.73188552418148 0.04407866778234925 -0.01876007183520245 0.01957075798753294 0.04882896413245401 0.02166780225471015 -0.003736029753540277 0.04642555866969032 -0.0007995270316185769 -19.77683996979734 -0.007380466864072722 0.014252696818633146 0.01547941070380618 -0.044635699155588744 0.045562362987355366 0.0429085645482234 0.04504077256080103 -0.048497105582794145 24.09181637766465 0.01067141314673458 0.040233119555654395 28.830025588068253 -0.005660186817702011 -0.005434460139529344 28.862695305190208 -0.028122489461883445 -0.025030809784703983 4.9732495018183664 1.4377836785817804 14.445104192221718 -76.69911423033354 17.533144009948366 -8.901617748627405 16.520485355104867 6.393885569867428 -59.8896832001383 -18.43845868423434 11.741275406798955 -6.621885451268697 -0.4892328328089947 0.0945662713320218 -8.085783317994123 -0.008957520989317567 0.0020389328779876264 44.568067597481836 -0.0007384147602761407 -0.04290696144333176 44.56740269943857 12.481591820311795 -0.026444890145925024 -0.0025321573751936584 -0.017638857265115732 -0.04563425724838704 -0.011373150149243146 -0.02069862879622689 0.03784127832051964 0.016386830308156828 11.141227285677932 0.005753607192097766 -0.040612749481674294 -0.012089577289551002 -0.046630908512718026 0.02005042291285923 -0.03165460994442978 -0.0005806179299989279 -0.01967163612121279 4.772906870720562 0.02860499547836565 0.025151744774150952 0.014715082443626716 0.0495629344091049 0.03517899290125532 -0.04244296103012132 -0.032432660506067405 0.044884891648977486 -5.627312074392581 -0.026491061842958206 0.03682900804707361 -6.68208193728015 -0.039357024806520695 -0.04146889494395861 -6.712949339881873 0.02286873384904918 0.004424468959210689 -0.019128943723557345 0.001170120901682837 0.02139618027643663 8.031867527217672 3.4507775858497594 -19.25158327124074 -0.0304663040350954 10.415275352056915 0.0076263752515377155 -5.649709679267953 -15.640243500237643 3.189806664163586 -0.005793417156754362 0.039530463313694725 0.032449933841259396 0.034816932998584765 4.733769245380015 0.010026559680568531 12.458756058511833 -8.245301671775879 6.91719677104248 -0.026171600869938076 46.363427379488634 0.02189217395250713 -4.293543241968815 -14.784222257633775 -3.8717630112833885 0.036418271059884606 0.017949565813695428 -0.03325388332967281 -0.0002535033858566949 -10.774586324652141 0.009764676708340612 
